{
  "title": "Madaari (2016) ~2CD x264 DesiSCR AAC -DDR",
  "uid": 15384415,
  "size": 1353021939,
  "categoryP": "video",
  "categoryS": "movies",
  "magnet": "?xt=urn:btih:e53b75c476a027bbe25a1bec97f44cc770dc7210&amp;dn=Madaari+%282016%29+%7E2CD+x264+DesiSCR+AAC+-DDR&amp;tr=udp%3A%2F%2Ftracker.leechers-paradise.org%3A6969&amp;tr=udp%3A%2F%2Fzer0day.ch%3A1337&amp;tr=udp%3A%2F%2Fopen.demonii.com%3A1337&amp;tr=udp%3A%2F%2Ftracker.coppersurfer.tk%3A6969&amp;tr=udp%3A%2F%2Fexodus.desync.com%3A6969",
  "seeders": 383,
  "leechers": 143,
  "uploader": "SaM",
  "files": 3,
  "time": 1469274233,
  "description": "\n- BollywooD MoviE -\r\n**- Madaari -**\r\n- 2016 -\r\n** ~2CD DesiSCR Rip / x264 / AAC **\r\n \nhttp://extraimago.com/image/aAus \nhttp://extraimago.com/image/aAun \nhttp://extraimago.com/image/aAuj \nhttp://extraimago.com/image/aAuT \nhttp://extraimago.com/image/aAuN \nhttp://extraimago.com/image/aAu2 \nhttp://extraimago.com/image/aAuw \nhttp://extraimago.com/image/aAua \nhttp://extraimago.com/image/aAu8 \nhttp://extraimago.com/image/aAVf \nhttp://extraimago.com/image/aAVW \nhttp://extraimago.com/image/aAVA \nhttp://extraimago.com/image/aAVv \nhttp://extraimago.com/image/aAVu \nhttp://extraimago.com/image/aAVV \nhttp://extraimago.com/image/aAV6 \nhttp://extraimago.com/image/aAVx\r\n\r\n[ Specs ]\r\nGeneral\r\nSource = DesiSCR @ DUS (Thanks Sher bhai)\r\nFormat : Matroska\r\nFile size : 1.25 GiB\r\nDuration : 2h 13mn\r\nOverall bit rate : 1 348 Kbps\r\nEncoded date : UTC 2016-07-23 08:33:08\r\n\r\nVideo\r\nFormat : AVC\r\nFormat/Info : Advanced Video Codec\r\nFormat profile :   \r\nFormat settings, CABAC : Yes\r\nFormat settings, ReFrames : 5 frames\r\nCodec ID : V_MPEG4/ISO/AVC\r\nDuration : 2h 13mn\r\nBit rate : 1 218 Kbps\r\nWidth : 720 pixels\r\nHeight : 304 pixels\r\nDisplay aspect ratio : 2.35:1\r\nFrame rate mode : Constant\r\nFrame rate : 24.975 (25000/1001) fps\r\nColor space : YUV\r\nChroma subsampling : 4:2:0\r\nBit depth : 8 bits\r\nScan type : Progressive\r\nBits/(Pixel*Frame) : 0.223\r\nStream size : 1.13 GiB (90%)\r\nForced : No\r\nColor primaries : BT.709\r\n\r\n\r\nAudio\r\nFormat : AAC\r\nFormat/Info : Advanced Audio Codec\r\nFormat profile : LC\r\nCodec ID : A_AAC\r\nDuration : 2h 13mn\r\nBit rate : 128 Kbps\r\nChannel(s) : 2 channels\r\nChannel positions : Front: L R\r\nSampling rate : 48.0 KHz\r\nFrame rate : 46.875 fps (1024 spf)\r\nCompression mode : Lossy\r\nStream size : 122 MiB (9%)\r\nLanguage : Hindi\r\nDefault : Yes\r\nForced : No\r\n\r\n\r\nChapters: None on source\r\nSAMPLE : Included\r\n\r\nA DDR Exclusive Release...!",
  "parsed": {
    "xt": "urn:btih:e53b75c476a027bbe25a1bec97f44cc770dc7210",
    "dn": "Madaari (2016) ~2CD x264 DesiSCR AAC -DDR",
    "tr": [
      "udp://exodus.desync.com:6969",
      "udp://open.demonii.com:1337",
      "udp://tracker.coppersurfer.tk:6969",
      "udp://tracker.leechers-paradise.org:6969",
      "udp://zer0day.ch:1337"
    ],
    "infoHash": "e53b75c476a027bbe25a1bec97f44cc770dc7210",
    "infoHashBuffer": {
      "type": "Buffer",
      "data": [
        229,
        59,
        117,
        196,
        118,
        160,
        39,
        187,
        226,
        90,
        27,
        236,
        151,
        244,
        76,
        199,
        112,
        220,
        114,
        16
      ]
    },
    "name": "Madaari (2016) ~2CD x264 DesiSCR AAC -DDR",
    "announce": [
      "udp://exodus.desync.com:6969",
      "udp://open.demonii.com:1337",
      "udp://tracker.coppersurfer.tk:6969",
      "udp://tracker.leechers-paradise.org:6969",
      "udp://zer0day.ch:1337"
    ],
    "urlList": []
  },
  "previous": 526,
  "peers": 318,
  "last_updated": "2016-12-25T16:38:02.374Z"
}